<svg width="65" height="65" viewBox="0 0 65 65" fill="none" xmlns="http://www.w3.org/2000/svg">
<path d="M23.5875 42.1739C25.9846 39.8742 29.1778 38.5901 32.4996 38.5901C35.8215 38.5901 39.0147 39.8742 41.4117 42.1739" stroke="white" stroke-width="3" stroke-linecap="round" stroke-linejoin="round"/>
<path d="M14.9805 33.5409C19.6661 28.9689 25.9534 26.4097 32.5 26.4097C39.0466 26.4097 45.3339 28.9689 50.0195 33.5409" stroke="white" stroke-width="3" stroke-linecap="round" stroke-linejoin="round"/>
<path d="M6.37341 24.9337C13.3377 18.0707 22.7227 14.2235 32.5004 14.2235C42.278 14.2235 51.663 18.0707 58.6273 24.9337" stroke="white" stroke-width="3" stroke-linecap="round" stroke-linejoin="round"/>
<path d="M32.5 53.8281C34.1827 53.8281 35.5469 52.464 35.5469 50.7812C35.5469 49.0985 34.1827 47.7344 32.5 47.7344C30.8173 47.7344 29.4531 49.0985 29.4531 50.7812C29.4531 52.464 30.8173 53.8281 32.5 53.8281Z" fill="white"/>
</svg>
