<svg width="65" height="65" viewBox="0 0 65 65" fill="none" xmlns="http://www.w3.org/2000/svg">
<path d="M32.5 44.6875C42.5965 44.6875 50.7812 36.5027 50.7812 26.4062C50.7812 16.3098 42.5965 8.125 32.5 8.125C22.4035 8.125 14.2188 16.3098 14.2188 26.4062C14.2188 36.5027 22.4035 44.6875 32.5 44.6875Z" stroke="white" stroke-width="3" stroke-linecap="round" stroke-linejoin="round"/>
<path d="M32.5 34.5312C36.9873 34.5312 40.625 30.8936 40.625 26.4062C40.625 21.9189 36.9873 18.2812 32.5 18.2812C28.0127 18.2812 24.375 21.9189 24.375 26.4062C24.375 30.8936 28.0127 34.5312 32.5 34.5312Z" stroke="white" stroke-width="3" stroke-linecap="round" stroke-linejoin="round"/>
<path d="M32.5 44.6875V52.8125" stroke="white" stroke-width="3" stroke-linecap="round" stroke-linejoin="round"/>
<path d="M8.125 52.8125H56.875" stroke="white" stroke-width="3" stroke-linecap="round" stroke-linejoin="round"/>
</svg>
