<svg width="65" height="65" viewBox="0 0 65 65" fill="none" xmlns="http://www.w3.org/2000/svg">
<path d="M8.125 24.375V14.2188C8.125 13.68 8.33901 13.1634 8.71994 12.7824C9.10087 12.4015 9.61753 12.1875 10.1562 12.1875H54.8438C55.3825 12.1875 55.8991 12.4015 56.2801 12.7824C56.661 13.1634 56.875 13.68 56.875 14.2188V50.7812C56.875 51.32 56.661 51.8366 56.2801 52.2176C55.8991 52.5985 55.3825 52.8125 54.8438 52.8125H36.5625" stroke="white" stroke-width="4" stroke-linecap="round" stroke-linejoin="round"/>
<path d="M8.125 48.75C9.20244 48.75 10.2358 49.178 10.9976 49.9399C11.7595 50.7017 12.1875 51.7351 12.1875 52.8125" stroke="white" stroke-width="4" stroke-linecap="round" stroke-linejoin="round"/>
<path d="M8.125 40.625C11.3573 40.625 14.4573 41.909 16.7429 44.1946C19.0285 46.4802 20.3125 49.5802 20.3125 52.8125" stroke="white" stroke-width="4" stroke-linecap="round" stroke-linejoin="round"/>
<path d="M8.125 32.5C10.7925 32.5 13.4338 33.0254 15.8983 34.0462C18.3627 35.067 20.6019 36.5632 22.4881 38.4494C24.3743 40.3356 25.8705 42.5748 26.8913 45.0392C27.9121 47.5037 28.4375 50.145 28.4375 52.8125" stroke="white" stroke-width="4" stroke-linecap="round" stroke-linejoin="round"/>
</svg>
