<svg width="65" height="65" viewBox="0 0 65 65" fill="none" xmlns="http://www.w3.org/2000/svg">
<path d="M4.0625 30.4688H60.9375" stroke="white" stroke-width="3" stroke-linecap="round" stroke-linejoin="round"/>
<path d="M56.875 46.7188V52.8125C56.875 53.3512 56.661 53.8679 56.2801 54.2488C55.8991 54.6297 55.3825 54.8438 54.8438 54.8438H48.75C48.2113 54.8438 47.6946 54.6297 47.3137 54.2488C46.9328 53.8679 46.7188 53.3512 46.7188 52.8125V46.7188" stroke="white" stroke-width="3" stroke-linecap="round" stroke-linejoin="round"/>
<path d="M18.2812 46.7188V52.8125C18.2812 53.3512 18.0672 53.8679 17.6863 54.2488C17.3054 54.6297 16.7887 54.8438 16.25 54.8438H10.1562C9.61753 54.8438 9.10087 54.6297 8.71994 54.2488C8.33901 53.8679 8.125 53.3512 8.125 52.8125V46.7188" stroke="white" stroke-width="3" stroke-linecap="round" stroke-linejoin="round"/>
<path d="M16.25 38.5938H20.3125" stroke="white" stroke-width="3" stroke-linecap="round" stroke-linejoin="round"/>
<path d="M44.6875 38.5938H48.75" stroke="white" stroke-width="3" stroke-linecap="round" stroke-linejoin="round"/>
<path d="M56.875 30.4688L49.2832 13.4062C49.1257 13.0453 48.8666 12.7379 48.5375 12.5215C48.2084 12.3051 47.8235 12.1891 47.4297 12.1875H17.5703C17.1765 12.1891 16.7916 12.3051 16.4625 12.5215C16.1334 12.7379 15.8743 13.0453 15.7168 13.4062L8.125 30.4688V46.7188H56.875V30.4688Z" stroke="white" stroke-width="3" stroke-linecap="round" stroke-linejoin="round"/>
</svg>
