<svg width="84" height="48" viewBox="0 0 84 48" fill="none" xmlns="http://www.w3.org/2000/svg">
<path d="M68.9798 16.3439L69.1267 16.493H69.3361H78.75C80.0073 16.493 81.2147 17.0001 82.1061 17.9053C82.9977 18.8107 83.5 20.0403 83.5 21.3241V34.6516C83.5 35.9353 82.9977 37.1649 82.1061 38.0703C81.2147 38.9755 80.0073 39.4826 78.75 39.4826H73.1719H72.7823L72.687 39.8603C72.1355 42.0477 70.883 43.9851 69.1288 45.3677C67.3747 46.7503 65.2184 47.5 63 47.5C60.7816 47.5 58.6253 46.7503 56.8712 45.3677C55.117 43.9851 53.8645 42.0477 53.313 39.8603L53.2177 39.4826H52.8281H31.1719H30.7823L30.687 39.8603C30.1355 42.0477 28.883 43.9851 27.1288 45.3677C25.3747 46.7503 23.2184 47.5 21 47.5C18.7816 47.5 16.6253 46.7503 14.8712 45.3677C13.117 43.9851 11.8645 42.0477 11.313 39.8603L11.2177 39.4826H10.8281H5.25C3.99271 39.4826 2.78535 38.9755 1.89394 38.0703C1.00228 37.1649 0.5 35.9353 0.5 34.6516V18.659C0.500772 18.2294 0.625571 17.8101 0.858134 17.4529C0.858287 17.4526 0.858439 17.4524 0.858591 17.4522L10.5897 2.64695L10.5897 2.64689C11.0235 1.98669 11.6102 1.44597 12.2975 1.07183C12.9845 0.697791 13.7512 0.501568 14.5299 0.500027L51.4139 0.50003L51.4155 0.500024C52.0379 0.498005 52.6546 0.621613 53.2299 0.863863C53.8052 1.10612 54.3279 1.4623 54.7674 1.9121L54.7687 1.91352L68.9798 16.3439ZM14.5294 4.83103H14.2591L14.1111 5.0571L7.12859 15.7191L6.62175 16.493H7.54688H61.9139H63.1081L62.2702 15.6422L51.7702 4.9802L51.6233 4.83103H51.4139H14.5294ZM78.75 35.1516H79.25V34.6516V21.3241V20.8241H78.75H5.25H4.75V21.3241V34.6516V35.1516H5.25H10.8281H11.2177L11.313 34.7738C11.8645 32.5864 13.117 30.6491 14.8712 29.2664C16.6253 27.8838 18.7816 27.1342 21 27.1342C23.2184 27.1342 25.3747 27.8838 27.1288 29.2664C28.883 30.6491 30.1355 32.5864 30.687 34.7738L30.7823 35.1516H31.1719H52.8281H53.2177L53.313 34.7738C53.8645 32.5864 55.117 30.6491 56.8712 29.2664C58.6253 27.8838 60.7816 27.1342 63 27.1342C65.2184 27.1342 67.3747 27.8838 69.1288 29.2664C70.883 30.6491 72.1355 32.5864 72.687 34.7738L72.7823 35.1516H73.1719H78.75ZM17.8025 42.1634C18.7483 42.8051 19.861 43.1481 21 43.1481C22.5275 43.1481 23.9908 42.5319 25.0686 41.4375C26.146 40.3434 26.75 38.8611 26.75 37.3171C26.75 36.1655 26.4137 35.0392 25.7829 34.0805C25.152 33.1217 24.2545 32.3733 23.2029 31.931C22.1513 31.4887 20.9937 31.3728 19.8768 31.5984C18.7599 31.824 17.7351 32.3806 16.9314 33.1967C16.1279 34.0126 15.5815 35.0513 15.3602 36.1809C15.1389 37.3105 15.2524 38.4815 15.6867 39.546C16.1209 40.6106 16.8569 41.5218 17.8025 42.1634ZM59.8025 42.1634C60.7483 42.8051 61.861 43.1481 63 43.1481C64.5275 43.1481 65.9908 42.5319 67.0686 41.4375C68.146 40.3434 68.75 38.8611 68.75 37.3171C68.75 36.1655 68.4137 35.0392 67.7829 34.0805C67.152 33.1217 66.2545 32.3733 65.2029 31.931C64.1513 31.4887 62.9937 31.3728 61.8768 31.5984C60.7599 31.824 59.7351 32.3806 58.9314 33.1967C58.1279 34.0126 57.5815 35.0513 57.3602 36.1809C57.1389 37.3105 57.2524 38.4815 57.6867 39.546C58.1209 40.6106 58.8568 41.5218 59.8025 42.1634Z" stroke="#FF7A03"/>
</svg>
