<svg width="74" height="47" viewBox="0 0 74 47" fill="none" xmlns="http://www.w3.org/2000/svg">
<path d="M49.9509 31.0342H49.9505C49.4587 31.0342 48.9873 31.2292 48.6399 31.5759C48.2925 31.9226 48.0975 32.3926 48.0975 32.8824C48.0975 33.3723 48.2925 33.8423 48.6399 34.189C48.9872 34.5356 49.4585 34.7306 49.9501 34.7307C49.9502 34.7307 49.9504 34.7307 49.9505 34.7307V35.2307C53.8701 35.2254 57.7287 36.1996 61.1743 38.0643C64.6199 39.9291 67.543 42.625 69.6768 45.9063L49.9509 31.0342ZM49.9509 31.0342C51.9302 31.0323 53.8846 30.5942 55.6746 29.7511C57.4646 28.908 59.0461 27.6807 60.3058 26.1568C61.5656 24.6329 62.4727 22.8501 62.9621 20.9357C63.4515 19.0213 63.5112 17.0226 63.1369 15.0825C62.7627 13.1423 61.9636 11.3087 60.7971 9.71264C59.6305 8.11654 58.1251 6.79738 56.3886 5.84933C54.6521 4.90128 52.7272 4.34774 50.7516 4.22821C48.776 4.10867 46.7982 4.42609 44.9597 5.1578L44.9531 5.16044L44.9465 5.16327C44.7192 5.26136 44.4744 5.31299 44.2266 5.31508C43.9789 5.31717 43.7332 5.26968 43.5042 5.17543C43.2752 5.08119 43.0676 4.94212 42.8935 4.7665C42.7193 4.59088 42.5823 4.38226 42.4904 4.15301L42.0263 4.33902L42.4904 4.153C42.3985 3.92376 42.3536 3.67848 42.3584 3.43168C42.3631 3.18487 42.4173 2.94148 42.5179 2.71588C42.6185 2.49028 42.7634 2.28703 42.9441 2.11815C43.1248 1.94927 43.3377 1.8182 43.5701 1.73274L43.5702 1.7329L43.5825 1.72801C47.5192 0.161123 51.8979 0.104734 55.8738 1.56973C59.8498 3.03471 63.1409 5.91717 65.1127 9.66074C67.0844 13.4043 67.5971 17.7438 66.552 21.8423C65.5069 25.9408 62.9779 29.508 59.4527 31.8557L58.6334 32.4014L59.5572 32.7412C65.1606 34.8022 69.9458 38.6162 73.1989 43.6137L73.1994 43.6144C73.4676 44.0249 73.5614 44.5247 73.4603 45.004C73.3592 45.4833 73.0715 45.9032 72.66 46.1712L49.9509 31.0342ZM33.5709 31.8554L32.75 32.4009L33.675 32.7412C39.2773 34.8019 44.0617 38.6147 47.3149 43.6108C47.5736 44.0208 47.6606 44.5156 47.5573 44.9889C47.4537 45.4631 47.1672 45.8778 46.7595 46.1433C46.3516 46.4088 45.8553 46.5035 45.378 46.4067C44.9018 46.3103 44.4829 46.0311 44.2112 45.6299C42.0295 42.2823 39.0448 39.5315 35.5279 37.627C32.0099 35.7219 28.0707 34.7241 24.0683 34.7241C20.0658 34.7241 16.1266 35.7219 12.6086 37.627C9.09049 39.5321 6.10489 42.2842 3.92296 45.6334L3.92292 45.6334L3.91948 45.6388C3.78836 45.8459 3.61728 46.0249 3.41613 46.1655C3.21498 46.306 2.98778 46.4053 2.74773 46.4576C2.50769 46.5098 2.25963 46.5139 2.01798 46.4696C1.77634 46.4253 1.54598 46.3335 1.34028 46.1996C1.13459 46.0657 0.957683 45.8924 0.819803 45.6897C0.681925 45.4871 0.585812 45.2592 0.537006 45.0193C0.4882 44.7794 0.487665 44.5322 0.535432 44.292C0.5832 44.0519 0.678325 43.8236 0.815324 43.6204L0.815378 43.6204L0.819779 43.6137C4.07295 38.6162 8.85815 34.8022 14.4615 32.7412L15.3866 32.4009L14.5656 31.8554C11.5014 29.8196 9.17523 26.8537 7.93085 23.3966C6.68647 19.9396 6.58989 16.1746 7.65536 12.6586C8.72085 9.14248 10.8919 6.06174 13.8476 3.87205C16.8034 1.68235 20.3869 0.5 24.0683 0.5C27.7496 0.5 31.3331 1.68235 34.2889 3.87205C37.2446 6.06174 39.4157 9.14248 40.4811 12.6586C41.5466 16.1746 41.45 19.9396 40.2057 23.3966C38.9613 26.8537 36.6351 29.8196 33.5709 31.8554ZM10.6272 17.6189V17.6195C10.6312 21.1764 12.0488 24.5862 14.5686 27.101C17.0884 29.6158 20.5046 31.0302 24.0677 31.0342H24.0683C26.7264 31.0342 29.325 30.2475 31.5353 28.7736C33.7457 27.2996 35.4686 25.2045 36.4861 22.7531C37.5035 20.3016 37.7698 17.604 37.2511 15.0015C36.7323 12.399 35.452 10.0086 33.5722 8.13251C31.6924 6.25643 29.2974 4.97891 26.6903 4.46135C24.0832 3.9438 21.3808 4.20942 18.9249 5.22466C16.469 6.23991 14.3697 7.95924 12.8926 10.1654C11.4156 12.3716 10.6272 14.9654 10.6272 17.6189Z" stroke="#FF7A03"/>
</svg>
