<svg width="200" height="200" viewBox="0 0 200 200" fill="none" xmlns="http://www.w3.org/2000/svg">
<g clip-path="url(#clip0_113_13)">
<rect width="200" height="200" fill="white"/>
<circle cx="100" cy="100" r="73" fill="#FF7A03"/>
<path d="M-48.1865 99.5168L-76 132.056V326H276V129.704L263.598 95.2043L252.017 104.613C252.017 104.613 243.11 88.4742 239.341 79.5226L226.574 112.062L198.943 64.2329L183.805 83.247L156.174 56L146.417 83.247L130.093 79.5226L112.858 112.062L88.6922 85.9913L66.0767 99.5168L46.2881 85.9913C35.8314 103.437 14.5716 138.329 13.1855 138.329C11.7994 138.329 0.935402 124.608 -4.32332 117.747C-8.8829 121.471 -18.4945 128.606 -20.4643 127.352C-22.434 126.097 -39.7665 108.272 -48.1865 99.5168Z" fill="#54820A"/>
</g>
<defs>
<clipPath id="clip0_113_13">
<rect width="200" height="200" fill="white"/>
</clipPath>
</defs>
</svg>
