<svg width="21" height="21" viewBox="0 0 21 21" fill="none" xmlns="http://www.w3.org/2000/svg">
<path d="M10.5 14.7656C12.3122 14.7656 13.7812 13.2966 13.7812 11.4844C13.7812 9.67219 12.3122 8.20312 10.5 8.20312C8.68782 8.20312 7.21875 9.67219 7.21875 11.4844C7.21875 13.2966 8.68782 14.7656 10.5 14.7656Z" stroke="#816347" stroke-linecap="round" stroke-linejoin="round"/>
<path d="M16.0781 9.51563C16.8424 9.51435 17.5965 9.69169 18.2801 10.0335C18.9638 10.3753 19.5581 10.8722 20.0156 11.4844" stroke="#816347" stroke-linecap="round" stroke-linejoin="round"/>
<path d="M0.984375 11.4844C1.44195 10.8722 2.03625 10.3753 2.71988 10.0335C3.40351 9.69169 4.15755 9.51435 4.92188 9.51563" stroke="#816347" stroke-linecap="round" stroke-linejoin="round"/>
<path d="M5.77515 17.7187C6.20731 16.8337 6.87935 16.0878 7.71473 15.5661C8.55011 15.0443 9.51523 14.7677 10.5001 14.7677C11.4851 14.7677 12.4502 15.0443 13.2856 15.5661C14.1209 16.0878 14.793 16.8337 15.2251 17.7187" stroke="#816347" stroke-linecap="round" stroke-linejoin="round"/>
<path d="M4.92185 9.51562C4.42363 9.51613 3.93555 9.37484 3.51465 9.10826C3.09374 8.84167 2.75739 8.46081 2.5449 8.01017C2.33242 7.55954 2.25256 7.05773 2.31467 6.56339C2.37677 6.06906 2.57828 5.6026 2.89564 5.21854C3.21301 4.83447 3.63311 4.54865 4.10688 4.39447C4.58065 4.2403 5.08851 4.22413 5.57113 4.34787C6.05374 4.47161 6.49117 4.73013 6.83231 5.09324C7.17346 5.45635 7.40422 5.90905 7.49764 6.39844" stroke="#816347" stroke-linecap="round" stroke-linejoin="round"/>
<path d="M13.5022 6.39844C13.5956 5.90905 13.8264 5.45635 14.1675 5.09324C14.5087 4.73013 14.9461 4.47161 15.4287 4.34787C15.9113 4.22413 16.4192 4.2403 16.8929 4.39447C17.3667 4.54865 17.7868 4.83447 18.1042 5.21854C18.4215 5.6026 18.6231 6.06906 18.6852 6.56339C18.7473 7.05773 18.6674 7.55954 18.4549 8.01017C18.2424 8.46081 17.9061 8.84167 17.4852 9.10826C17.0643 9.37484 16.5762 9.51613 16.078 9.51562" stroke="#816347" stroke-linecap="round" stroke-linejoin="round"/>
</svg>
