<svg width="66" height="47" viewBox="0 0 66 47" fill="none" xmlns="http://www.w3.org/2000/svg">
<path d="M65.2826 44.1711L65.2825 44.171L51.216 20.6505L51.2149 20.6487C50.8969 20.1117 50.4418 19.6663 49.8947 19.3577C49.3475 19.0491 48.7277 18.8881 48.0975 18.8913L48.0924 18.8913C47.4625 18.888 46.8432 19.049 46.2964 19.3576C45.7497 19.6662 45.2951 20.1115 44.9778 20.6483L44.9765 20.6505L38.232 31.9305L37.8017 32.6502L37.3732 31.9295L25.8126 12.4909L25.8125 12.4906C25.4929 11.9525 25.0366 11.5057 24.4884 11.1951C23.9402 10.8845 23.3192 10.721 22.6871 10.721C22.0549 10.721 21.434 10.8845 20.8858 11.1951C20.3376 11.5057 19.8813 11.9525 19.5617 12.4906L19.5615 12.4909L0.715138 44.175C0.715116 44.175 0.715095 44.175 0.715073 44.1751C0.575901 44.4092 0.501843 44.6753 0.500034 44.9463C0.498225 45.2175 0.568746 45.4845 0.704809 45.7204C0.840889 45.9564 1.03784 46.1532 1.27619 46.2903C1.5145 46.4274 1.7855 46.4999 2.06171 46.5L65.2826 44.1711ZM65.2826 44.1711C65.4227 44.4052 65.4976 44.6716 65.4999 44.9431C65.5023 45.2146 65.4322 45.4822 65.2962 45.7187C65.1603 45.9552 64.9632 46.1524 64.7246 46.2899C64.4859 46.4273 64.2145 46.4999 63.9378 46.5C63.9378 46.5 63.9378 46.5 63.9377 46.5M65.2826 44.1711L63.9377 46.5M63.9377 46.5H2.06191H63.9377ZM23.1168 14.0488L22.6871 13.3262L22.2573 14.0488L16.1806 24.2662L15.7312 25.0217H16.6103H28.7638H29.643L29.1936 24.2662L23.1168 14.0488ZM5.24142 42.6574L4.792 43.413H5.67115H39.703H40.5821L40.1327 42.6575L36.4563 36.4759L36.0265 36.7315L36.4563 36.4759L31.6248 28.3531L31.4794 28.1087H31.195H14.1791H13.8947L13.7494 28.3531L5.24142 42.6574ZM44.0609 43.1686L44.2063 43.413H44.4907H60.3284H61.2105L60.7574 42.6562L48.524 22.2214L48.0947 21.5044L47.6658 22.2217L39.7663 35.4327L39.6133 35.6886L39.7657 35.9449L44.0609 43.1686ZM46.0158 12.6821C44.9107 13.4136 43.6111 13.8043 42.2812 13.8043C40.4977 13.8043 38.7883 13.1024 37.5286 11.8543C36.269 10.6064 35.5623 8.91494 35.5623 7.15218C35.5623 5.83754 35.9558 4.55204 36.6934 3.45821C37.4312 2.36433 38.4802 1.51105 39.7085 1.00699C40.9368 0.502921 42.2886 0.370961 43.5928 0.627995C44.8971 0.885023 46.0944 1.51934 47.0338 2.45002C47.9731 3.38065 48.6122 4.56577 48.8711 5.85528C49.13 7.14475 48.9972 8.48138 48.4893 9.69633C47.9813 10.9113 47.1208 11.9506 46.0158 12.6821ZM44.276 4.18662C43.6851 3.79546 42.9909 3.58696 42.2812 3.58696C41.3295 3.58696 40.4159 3.96146 39.7416 4.62955C39.0672 5.29779 38.6874 6.20512 38.6874 7.15218C38.6874 7.85835 38.8988 8.54828 39.2942 9.13469C39.6897 9.72105 40.2513 10.1774 40.9074 10.4466C41.5635 10.7159 42.2852 10.7863 42.9814 10.6491C43.6777 10.5118 44.3178 10.1731 44.8207 9.6748C45.3237 9.17651 45.6667 8.54107 45.8058 7.84859C45.9448 7.15609 45.8734 6.43834 45.6008 5.78631C45.3282 5.13432 44.8669 4.57782 44.276 4.18662Z" stroke="#FF7A03"/>
</svg>
