<svg width="65" height="65" viewBox="0 0 65 65" fill="none" xmlns="http://www.w3.org/2000/svg">
<path d="M32.5 60.5H32.5006C39.9239 60.4916 47.0408 57.5389 52.2899 52.2898C57.5389 47.0408 60.4916 39.9239 60.5 32.5006V32.5C60.5 26.9621 58.8578 21.5486 55.7812 16.944C52.7045 12.3395 48.3315 8.75062 43.2151 6.63137C38.0988 4.51212 32.4689 3.95763 27.0375 5.03801C21.606 6.1184 16.6169 8.78514 12.701 12.701C8.78515 16.6169 6.11841 21.606 5.03802 27.0375C3.95764 32.4689 4.51213 38.0988 6.63139 43.2151C8.75064 48.3315 12.3395 52.7045 16.944 55.7811C21.5486 58.8578 26.9621 60.5 32.5 60.5ZM18.2704 40.9998L18.2651 40.9906L18.2595 40.9818C18.1148 40.7541 18.0176 40.4996 17.9738 40.2334C17.93 39.9672 17.9406 39.695 18.0047 39.433C18.0689 39.171 18.1854 38.9247 18.3472 38.7089C18.5091 38.4931 18.7129 38.3123 18.9464 38.1773C19.1799 38.0423 19.4384 37.9559 19.7061 37.9234C19.9739 37.8909 20.2455 37.9128 20.5045 37.988C20.7636 38.0632 21.0048 38.1899 21.2136 38.3607C21.4224 38.5315 21.5944 38.7427 21.7195 38.9818L21.7244 38.9912L21.7297 39.0004C24.1454 43.1753 27.9716 45.5 32.5 45.5C37.0285 45.5 40.8547 43.1721 43.2672 39.0003L43.2674 38.9999C43.5326 38.5404 43.9696 38.2051 44.482 38.0677C44.9945 37.9303 45.5405 38.0022 46.0001 38.2674C46.4596 38.5326 46.7949 38.9695 46.9323 39.482C47.0696 39.9943 46.9979 40.5402 46.7328 40.9996C43.6008 46.4145 38.4134 49.5 32.5 49.5C26.5866 49.5 21.4024 46.4176 18.2704 40.9998ZM14.7218 5.89297C19.9841 2.37682 26.1708 0.500054 32.4997 0.5C40.984 0.509026 49.1181 3.88337 55.1174 9.88263C61.1167 15.882 64.491 24.0162 64.5 32.5005C64.4999 38.8293 62.6231 45.016 59.107 50.2782C55.5908 55.5406 50.5931 59.6421 44.7459 62.0641C38.8986 64.4861 32.4645 65.1199 26.2571 63.8851C20.0497 62.6504 14.3479 59.6027 9.8726 55.1274C5.39732 50.6521 2.34961 44.9503 1.11489 38.7429C-0.119841 32.5355 0.513865 26.1014 2.93587 20.2541C5.35787 14.4069 9.45939 9.40918 14.7218 5.89297ZM18 26.25C18 25.6072 18.1906 24.9789 18.5477 24.4444C18.9048 23.9099 19.4124 23.4934 20.0063 23.2474C20.6001 23.0014 21.2536 22.937 21.8841 23.0624C22.5145 23.1878 23.0936 23.4974 23.5481 23.9519C24.0026 24.4064 24.3122 24.9855 24.4376 25.616C24.563 26.2464 24.4986 26.8999 24.2526 27.4937C24.0066 28.0876 23.5901 28.5952 23.0556 28.9523C22.5212 29.3094 21.8928 29.5 21.25 29.5C20.3881 29.5 19.5614 29.1576 18.9519 28.5481C18.3424 27.9386 18 27.1119 18 26.25ZM47 26.25C47 26.8928 46.8094 27.5211 46.4523 28.0556C46.0952 28.5901 45.5876 29.0066 44.9937 29.2526C44.3999 29.4986 43.7464 29.5629 43.116 29.4375C42.4855 29.3121 41.9064 29.0026 41.4519 28.5481C40.9974 28.0936 40.6879 27.5145 40.5625 26.884C40.437 26.2536 40.5014 25.6001 40.7474 25.0063C40.9934 24.4124 41.4099 23.9048 41.9444 23.5477C42.4789 23.1906 43.1072 23 43.75 23C44.612 23 45.4386 23.3424 46.0481 23.9519C46.6576 24.5614 47 25.388 47 26.25Z" stroke="#FF7A03"/>
</svg>
