<svg width="94" height="73" viewBox="0 0 94 73" fill="none" xmlns="http://www.w3.org/2000/svg">
<g filter="url(#filter0_d_86_18)">
<path d="M78.0228 20.0652V20.475L78.4246 20.5555C81.5523 21.1818 84.3628 22.8549 86.3807 25.2896C88.3985 27.7242 89.5 30.7708 89.5 33.913C89.5 37.0553 88.3985 40.1019 86.3807 42.5365C84.3628 44.9712 81.5523 46.6443 78.4246 47.2706L78.0228 47.3511V47.7609V59.3478C78.0228 60.712 77.4734 62.0217 76.493 62.9885C75.5125 63.9555 74.1811 64.5 72.7914 64.5H21.2086C19.8189 64.5 18.4875 63.9555 17.507 62.9885C16.5267 62.0217 15.9772 60.712 15.9772 59.3478V47.7609V47.3511L15.5754 47.2706C12.4477 46.6443 9.63723 44.9712 7.6193 42.5365C5.6015 40.1019 4.5 37.0553 4.5 33.913C4.5 30.7708 5.6015 27.7242 7.6193 25.2896C9.63723 22.8549 12.4477 21.1818 15.5754 20.5555L15.9772 20.475V20.0652V14.1304C15.9772 10.5177 17.4324 7.05147 20.025 4.49471C22.6179 1.93773 26.136 0.5 29.8057 0.5H64.1943C67.864 0.5 71.3821 1.93773 73.975 4.49471C76.5676 7.05147 78.0228 10.5177 78.0228 14.1304V20.0652ZM72.8907 20.5552L73.2914 20.474V20.0652V14.1304C73.2914 11.747 72.3312 9.46259 70.6244 7.77939C68.9179 6.09643 66.6047 5.15217 64.1943 5.15217H29.8057C27.3953 5.15217 25.0821 6.09643 23.3756 7.77939C21.6688 9.46259 20.7086 11.747 20.7086 14.1304V20.0652V20.474L21.1093 20.5552C24.2324 21.1885 27.0373 22.8641 29.0519 25.2978C31.0663 27.7313 32.1676 30.7743 32.1715 33.9137L32.1721 34.413H32.6715H61.3285H61.8279L61.8285 33.9137C61.8324 30.7743 62.9337 27.7313 64.9481 25.2978C66.9627 22.8641 69.7676 21.1885 72.8907 20.5552ZM75.7968 42.8914L75.8048 42.8912C77.5959 42.8625 79.3391 42.3125 80.8154 41.3096C82.2918 40.3065 83.4358 38.8949 84.1025 37.2512C84.7693 35.6074 84.9288 33.8056 84.5607 32.0723C84.1926 30.3391 83.3136 28.7528 82.0352 27.5122C80.7568 26.2717 79.1361 25.4321 77.3769 25.0978C75.6178 24.7636 73.7976 24.9493 72.1448 25.6321C70.4919 26.3148 69.0793 27.4645 68.0852 28.9377C67.0911 30.4111 66.5602 32.1419 66.56 33.913V33.913V48.0435C66.56 48.6581 66.3124 49.249 65.8695 49.6858C65.4264 50.1228 64.8239 50.3696 64.1943 50.3696C63.5646 50.3696 62.9621 50.1228 62.519 49.6858C62.0761 49.249 61.8285 48.6581 61.8285 48.0435V39.5652V39.0652H61.3285H32.6715H32.1715V39.5652V48.0435C32.1715 48.6581 31.9239 49.249 31.481 49.6858C31.0379 50.1228 30.4354 50.3696 29.8057 50.3696C29.1761 50.3696 28.5736 50.1228 28.1305 49.6858C27.6876 49.249 27.44 48.6581 27.44 48.0435V33.913V33.913C27.4398 32.1419 26.9089 30.4111 25.9148 28.9377C24.9207 27.4645 23.5081 26.3148 21.8552 25.6321C20.2024 24.9493 18.3822 24.7636 16.6231 25.0978C14.8639 25.4321 13.2432 26.2717 11.9648 27.5122C10.6864 28.7528 9.80736 30.3391 9.43926 32.0723C9.07116 33.8056 9.23067 35.6074 9.89747 37.2512C10.5642 38.8949 11.7082 40.3065 13.1846 41.3096C14.6609 42.3125 16.4041 42.8625 18.1952 42.8912L18.1952 42.8913H18.2032H18.3429C18.9726 42.8913 19.5751 43.138 20.0182 43.575C20.4611 44.0118 20.7086 44.6027 20.7086 45.2174V59.3478V59.8478H21.2086H72.7914H73.2914V59.3478V45.2174C73.2914 44.6027 73.5389 44.0118 73.9818 43.5751C74.4249 43.138 75.0274 42.8913 75.6571 42.8913L75.7968 42.8914Z" stroke="#FF7A03" shape-rendering="crispEdges"/>
</g>
<defs>
<filter id="filter0_d_86_18" x="0" y="0" width="94" height="73" filterUnits="userSpaceOnUse" color-interpolation-filters="sRGB">
<feFlood flood-opacity="0" result="BackgroundImageFix"/>
<feColorMatrix in="SourceAlpha" type="matrix" values="0 0 0 0 0 0 0 0 0 0 0 0 0 0 0 0 0 0 127 0" result="hardAlpha"/>
<feOffset dy="4"/>
<feGaussianBlur stdDeviation="2"/>
<feComposite in2="hardAlpha" operator="out"/>
<feColorMatrix type="matrix" values="0 0 0 0 0 0 0 0 0 0 0 0 0 0 0 0 0 0 0.25 0"/>
<feBlend mode="normal" in2="BackgroundImageFix" result="effect1_dropShadow_86_18"/>
<feBlend mode="normal" in="SourceGraphic" in2="effect1_dropShadow_86_18" result="shape"/>
</filter>
</defs>
</svg>
